<svg xmlns="http://www.w3.org/2000/svg" width="476" height="449" viewBox="0 0 476 449">
  <path fill="#8B8581" d="M422.3,172.5 C407.3,172.5 394.1,178.7 384.4,188.4 C348.7,163.7 300.6,147.8 247.3,146.1 L275,21.3 L363.2,41.1 C363.2,62.7 380.8,80.3 402.4,80.3 C424.4,80.3 442.1,62.2 442.1,40.6 C442.1,19 424.5,0.9 402.4,0.9 C387,0.9 373.7,10.2 367.1,22.9 L269.7,1.3 C264.8,-1.07691633e-14 260,3.5 258.7,8.4 L228.3,146 C175.4,148.2 127.8,164.1 92,188.8 C82.3,178.7 68.6,172.5 53.6,172.5 C-2,172.5 -20.2,247.1 30.7,272.6 C28.9,280.5 28.1,288.9 28.1,297.3 C28.1,381.1 122.5,449 238.4,449 C354.8,449 449.2,381.1 449.2,297.3 C449.2,288.9 448.3,280.1 446.1,272.2 C496,246.6 477.6,172.5 422.3,172.5 Z M111.4,277.9 C111.4,255.9 129,238.2 151.1,238.2 C172.7,238.2 190.3,255.8 190.3,277.9 C190.3,299.5 172.7,317.1 151.1,317.1 C129.1,317.2 111.4,299.5 111.4,277.9 Z M325.7,371.4 C289.3,407.8 186.6,407.8 150.2,371.4 C146.2,367.9 146.2,361.7 150.2,357.7 C153.7,354.2 159.9,354.2 163.4,357.7 C191.2,386.2 283.4,386.7 312.4,357.7 C315.9,354.2 322.1,354.2 325.6,357.7 C329.7,361.7 329.7,367.9 325.7,371.4 Z M324.9,317.2 C303.3,317.2 285.7,299.6 285.7,278 C285.7,256 303.3,238.3 324.9,238.3 C346.9,238.3 364.6,255.9 364.6,278 C364.5,299.5 346.9,317.2 324.9,317.2 Z"/>
</svg>
