<svg width="18" height="15" viewBox="0 0 18 15" xmlns="http://www.w3.org/2000/svg"><path d="M17.626 1.994a.308.308 0 0 0-.3-.31c-.095 0-.744.281-.913.33.226-.271.743-1.094.743-1.443a.308.308 0 0 0-.3-.31.306.306 0 0 0-.151.049c-.64.358-1.251.639-1.966.794A3.8 3.8 0 0 0 12.086 0c-2.088 0-3.8 1.752-3.8 3.911 0 .155.01.32.038.475-2.07-.184-4.035-1.075-5.578-2.498-.376-.349-.696-.726-1.034-1.113a.292.292 0 0 0-.254-.117c-.104 0-.189.078-.236.155C.884 1.326.705 2.16.705 2.78c0 .9.301 1.781.865 2.478-.178-.058-.451-.242-.61-.242-.198 0-.368.145-.368.349 0 1.355.724 2.614 1.834 3.32-.084-.01-.16-.038-.244-.038-.16 0-.292.145-.292.3 0 .039.01.068.02.106.413 1.307 1.448 2.295 2.746 2.605a6.551 6.551 0 0 1-3.528 1.026c-.282 0-.564-.049-.837-.049a.308.308 0 0 0-.3.31c0 .107.056.194.14.262.245.184.546.339.819.484a9.983 9.983 0 0 0 4.703 1.18c4.1 0 7.61-2.265 9.302-6.118.612-1.384.969-2.904.94-4.424v-.32c.64-.494 1.261-1.133 1.684-1.84a.342.342 0 0 0 .047-.174z" fill="#8B8581" fill-rule="evenodd"/></svg>