<svg xmlns="http://www.w3.org/2000/svg" viewBox="0 0 83.4 83.4" fill="#2b56ff"><path d="M80.3 34.6c4.1-9.2 4.2-16.5.2-20.5L69.2 2.9C65.2-1 58-1 48.8 3.1c-8.5 3.8-17.9 10.6-26.4 19.2-8.6 8.6-15.4 18-19.2 26.4C-1 58-1 65.2 2.9 69.2l11.2 11.2c2 2 4.7 2.9 8.1 2.9 3.3 0 7.3-1 11.7-2.8 0 0 .1 0 .1-.1.2-.1.4-.1.5-.2C43 76.4 52.4 69.6 60.9 61c8.5-8.5 15.2-17.7 19-26.1.3 0 .3-.1.4-.3zM67.8 45.7L60.2 38c2.8-3.7 5.2-7.4 7.1-11l7.5 7.5c-1.7 3.5-4 7.3-7 11.2zM57.6 57.6c-2.2 2.2-4.5 4.3-6.8 6.3l-7.7-7.7c2.3-2 4.6-4.1 6.8-6.3 2.6-2.6 5-5.2 7.2-7.9l7.7 7.7c-2.2 2.6-4.6 5.2-7.2 7.9zm-24 17.6l-7.5-7.5c4.2-2.2 8.7-5 13.1-8.4l7.7 7.7c-4.5 3.4-9 6.2-13.3 8.2zm35.9-52.9c1.4-3.4 2.3-6.6 2.6-9.4l4.9 4.9c2 2 2 6.3 0 11.9l-7.5-7.4zm-43.6 3.6C39.6 12.1 53.5 5 61.1 5c2 0 3.6.5 4.6 1.5 2.4 2.4 1.9 7.9-1.3 15.1-.1.2-.2.3-.2.5-3.3 7.1-9.3 15.7-17.9 24.3-2.6 2.6-5.2 5-7.9 7.2-.3.1-.7.3-1 .6-.1.1-.3.3-.4.5-5.4 4.3-10.7 7.7-15.8 9.9-7 3.1-12.5 3.6-14.9 1.2-4.7-4.9 2.1-22.5 19.6-39.9zm-8.2 51L12.8 72c2.5-.2 5.3-.9 8.4-2.1l7.3 7.3c-5 1.7-8.9 1.6-10.8-.3z"/><path d="M28.9 32.9c.6 0 1.3-.2 1.8-.7 1.8-1.8 3.6-3.4 5.4-5 11.1-9.5 18.4-11.1 19.6-9.8.3.3.5 1.1.2 2.5-.2 1.4.7 2.7 2 2.9 1.4.2 2.7-.7 2.9-2 .6-3.7-.5-5.8-1.6-6.9-5.1-5.1-17 1.6-26.4 9.6-1.9 1.6-3.8 3.4-5.7 5.3-1 1-1 2.6 0 3.5.5.3 1.2.6 1.8.6z"/></svg>
