<svg xmlns="http://www.w3.org/2000/svg" width="24" height="22" viewBox="0 0 24 22">
  <path fill="#8B8581" d="M18.813,9.259 L13.167,14.678 C12.847,14.983 12.437,15.136 12.026,15.136 C11.616,15.136 11.205,14.983 10.885,14.678 L5.239,9.259 C4.582,8.631 4.562,7.588 5.19,6.933 C5.82,6.276 6.861,6.254 7.515,6.883 L12.026,11.205 L16.543,6.883 C17.203,6.252 18.24,6.276 18.869,6.932 C19.5,7.577 19.484,8.627 18.824,9.258 L18.813,9.259 Z M23.896,1.713 C23.597,0.855 22.771,0.277 21.855,0.277 L2.179,0.277 C1.279,0.277 0.462,0.841 0.142,1.682 C0.048,1.932 0,2.193 0,2.456 L0,9.701 L0.084,11.142 C0.432,14.419 2.131,17.284 4.766,19.281 C4.811,19.317 4.86,19.351 4.909,19.386 L4.939,19.409 C6.35,20.439 7.928,21.137 9.633,21.481 C10.419,21.639 11.224,21.721 12.022,21.721 C12.761,21.721 13.503,21.654 14.231,21.517 C14.319,21.488 14.407,21.472 14.495,21.457 C14.518,21.457 14.544,21.442 14.569,21.428 C16.202,21.068 17.717,20.392 19.077,19.403 L19.106,19.372 L19.241,19.267 C21.868,17.272 23.565,14.405 23.927,11.119 L24,9.678 L24,2.445 C24,2.194 23.969,1.945 23.879,1.703 L23.896,1.713 Z"/>
</svg>
