<svg xmlns="http://www.w3.org/2000/svg" width="1664" height="1536" viewBox="0 0 1664 1536">
  <path fill="#8B8581" d="M384,1408 L1280,1408 L1280,1152 L384,1152 L384,1408 Z M384,768 L1280,768 L1280,384 L1120,384 C1093.33333,384 1070.66667,374.666667 1052,356 C1033.33333,337.333333 1024,314.666667 1024,288 L1024,128 L384,128 L384,768 Z M1536,832 C1536,814.666667 1529.66667,799.666667 1517,787 C1504.33333,774.333333 1489.33333,768 1472,768 C1454.66667,768 1439.66667,774.333333 1427,787 C1414.33333,799.666667 1408,814.666667 1408,832 C1408,849.333333 1414.33333,864.333333 1427,877 C1439.66667,889.666667 1454.66667,896 1472,896 C1489.33333,896 1504.33333,889.666667 1517,877 C1529.66667,864.333333 1536,849.333333 1536,832 Z M1664,832 L1664,1248 C1664,1256.66667 1660.83333,1264.16667 1654.5,1270.5 C1648.16667,1276.83333 1640.66667,1280 1632,1280 L1408,1280 L1408,1440 C1408,1466.66667 1398.66667,1489.33333 1380,1508 C1361.33333,1526.66667 1338.66667,1536 1312,1536 L352,1536 C325.333333,1536 302.666667,1526.66667 284,1508 C265.333333,1489.33333 256,1466.66667 256,1440 L256,1280 L32,1280 C23.3333333,1280 15.8333333,1276.83333 9.5,1270.5 C3.16666667,1264.16667 0,1256.66667 0,1248 L0,832 C0,779.333333 18.8333333,734.166667 56.5,696.5 C94.1666667,658.833333 139.333333,640 192,640 L256,640 L256,96 C256,69.3333333 265.333333,46.6666667 284,28 C302.666667,9.33333333 325.333333,0 352,0 L1024,0 C1050.66667,0 1080,6.66666667 1112,20 C1144,33.3333333 1169.33333,49.3333333 1188,68 L1340,220 C1358.66667,238.666667 1374.66667,264 1388,296 C1401.33333,328 1408,357.333333 1408,384 L1408,640 L1472,640 C1524.66667,640 1569.83333,658.833333 1607.5,696.5 C1645.16667,734.166667 1664,779.333333 1664,832 Z"/>
</svg>
