<svg xmlns="http://www.w3.org/2000/svg" width="14" height="24" viewBox="0 0 14 24">
  <path fill="#8B8581" d="M9.563,24 C4.47,24 2.532,20.244 2.532,17.589 L2.532,9.747 L0.116,9.747 L0.116,6.648 C3.746,5.335 4.628,2.052 4.826,0.179 C4.84,0.051 4.941,0 4.999,0 L8.516,0 L8.516,6.114 L13.317,6.114 L13.317,9.747 L8.497,9.747 L8.497,17.217 C8.513,18.218 8.872,19.588 10.704,19.588 L10.794,19.588 C11.425,19.568 12.28,19.383 12.73,19.169 L13.886,22.594 C13.45,23.23 11.486,23.968 9.73,23.998 L9.552,23.998 L9.563,24 Z"/>
</svg>
