<svg width="25px" height="25px" viewBox="0 0 25 25" xmlns="http://www.w3.org/2000/svg">
    <g stroke="none" stroke-width="1" fill="none" fill-rule="evenodd">
        <g transform="translate(-81.000000, -2897.000000)" fill="#8B8581">
            <g transform="translate(16.000000, 2897.000000)">
                <g transform="translate(65.000000, 0.500000)">
                    <path d="M21.6,0 L2.4,0 C1.08,0 0,1.08 0,2.4 L0,21.6 C0,22.92 1.08,24 2.4,24 L21.6,24 C22.92,24 24,22.92 24,21.6 L24,2.4 C24,1.08 22.92,0 21.6,0 L21.6,0 Z M20.4,2.4 L20.4,6 L18,6 C17.28,6 16.8,6.48 16.8,7.2 L16.8,9.6 L20.4,9.6 L20.4,13.2 L16.8,13.2 L16.8,21.6 L13.2,21.6 L13.2,13.2 L10.8,13.2 L10.8,9.6 L13.2,9.6 L13.2,6.6 C13.2,4.32 15.12,2.4 17.4,2.4 L20.4,2.4 L20.4,2.4 Z"></path>
                </g>
            </g>
        </g>
    </g>
</svg>