<svg xmlns="http://www.w3.org/2000/svg" width="24" height="16" viewBox="0 0 24 16">
  <path fill="#8B8581" d="M7.635,6.909 L7.635,9.528 L11.97,9.528 C11.797,10.653 10.66,12.823 7.639,12.823 C5.035,12.823 2.908,10.663 2.908,8 C2.908,5.338 5.03,3.178 7.636,3.178 C9.121,3.178 10.115,3.811 10.681,4.356 L12.754,2.362 C11.424,1.117 9.698,0.367 7.639,0.367 C3.412,0.365 0,3.785 0,8 C0,12.215 3.414,15.635 7.635,15.635 C12.045,15.635 14.967,12.537 14.967,8.174 C14.967,7.673 14.913,7.289 14.847,6.909 L7.635,6.909 Z M24,6.909 L21.817,6.909 L21.817,4.726 L19.634,4.726 L19.634,6.909 L17.452,6.909 L17.452,9.09 L19.636,9.09 L19.636,11.274 L21.825,11.274 L21.825,9.09 L24,9.09 L24,6.909 Z"/>
</svg>
