<svg xmlns="http://www.w3.org/2000/svg" width="24" height="24" viewBox="0 0 24 24">
  <path fill="#8B8581" d="M12.069,18.874 C8.046,18.874 6.249,16.895 6.249,15.41 C6.249,14.645 6.81,14.114 7.582,14.114 C9.305,14.114 8.855,16.591 12.069,16.591 C13.71,16.591 14.619,15.696 14.619,14.78 C14.619,14.229 14.35,13.62 13.265,13.351 L9.689,12.456 C6.809,11.732 6.286,10.17 6.286,8.705 C6.286,5.658 9.147,4.514 11.835,4.514 C14.306,4.514 17.228,5.887 17.228,7.713 C17.228,8.497 16.54,8.953 15.775,8.953 C14.306,8.953 14.577,6.916 11.611,6.916 C10.142,6.916 9.319,7.58 9.319,8.533 C9.319,9.486 10.472,9.791 11.476,10.02 L14.113,10.607 C17.004,11.256 17.737,12.953 17.737,14.551 C17.737,17.027 15.835,18.875 12.015,18.875 M23.099,13.993 L23.07,14.128 L23.026,13.888 C23.041,13.933 23.07,13.962 23.085,14.008 C23.205,13.333 23.266,12.645 23.266,11.956 C23.266,10.427 22.965,8.944 22.368,7.536 C21.799,6.188 20.973,4.974 19.941,3.94 C18.892,2.907 17.694,2.084 16.346,1.514 C15.028,0.883 13.545,0.584 12.018,0.584 C11.298,0.584 10.574,0.654 9.875,0.788 L9.994,0.848 L9.755,0.815 L9.874,0.79 C8.91,0.274 7.829,0 6.731,0 C4.942,0 3.261,0.698 1.995,1.967 C0.729,3.235 0.032,4.923 0.032,6.716 C0.032,7.859 0.324,8.981 0.876,9.974 L0.896,9.85 L0.937,10.089 L0.877,9.974 C0.763,10.619 0.705,11.273 0.705,11.929 C0.705,13.459 1.005,14.946 1.589,16.345 C2.157,17.707 2.967,18.921 4.016,19.954 C5.05,21.004 6.263,21.811 7.611,22.396 C9.005,22.996 10.488,23.294 12.015,23.294 C12.674,23.294 13.349,23.234 13.992,23.115 L13.873,23.053 L14.113,23.099 L13.978,23.129 C14.98,23.698 16.104,24 17.272,24 C19.055,24 20.731,23.31 22.005,22.037 C23.264,20.778 23.967,19.086 23.967,17.288 C23.967,16.15 23.668,15.026 23.114,14.022"/>
</svg>
